<!DOCTYPE svg PUBLIC "-//W3C//DTD SVG 20010904//EN" "http://www.w3.org/TR/2001/REC-SVG-20010904/DTD/svg10.dtd">
<svg version="1.0" xmlns="http://www.w3.org/2000/svg" width="1364px" height="410px" viewBox="0 0 12000 3610" preserveAspectRatio="xMidYMid meet">
<g id="layer101" fill="#8ea6b2" stroke="none">
 <path d="M0 1805 l0 -1805 6000 0 6000 0 0 1805 0 1805 -6000 0 -6000 0 0 -1805z"/>
 </g>
<g id="layer102" fill="#ffffff" stroke="none">
 <path d="M1964 2708 c-165 -348 -498 -587 -845 -605 -101 -6 -107 -7 -122 -32 -8 -14 -45 -60 -81 -103 -195 -228 -488 -400 -818 -479 l-98 -23 0 -733 0 -733 6000 0 6000 0 0 696 c0 659 -1 696 -17 689 -10 -5 -59 -23 -108 -40 -128 -46 -219 -59 -382 -52 -150 5 -249 28 -378 86 -215 98 -430 300 -566 532 l-41 71 -67 -7 c-187 -19 -492 59 -645 165 l-45 30 -148 -6 c-172 -8 -297 5 -428 42 -94 27 -253 97 -306 135 -16 11 -32 20 -33 18 -2 -2 -24 -45 -49 -95 -143 -285 -341 -470 -587 -546 -106 -33 -264 -32 -370 0 -234 74 -441 257 -564 500 -14 28 -30 52 -34 52 -4 0 -27 -14 -52 -31 -91 -61 -260 -139 -378 -173 -318 -92 -673 -67 -969 69 l-72 33 -56 -74 c-166 -217 -412 -383 -685 -463 -138 -40 -217 -51 -375 -51 -158 0 -237 11 -375 51 -429 126 -764 450 -890 861 -18 56 -33 104 -35 106 -1 1 -40 -18 -86 -42 -231 -123 -501 -155 -752 -92 -183 47 -322 122 -448 243 l-65 63 -30 -62z"/>
 </g>

</svg>